<?xml version="1.0" encoding="UTF-8" standalone="no"?>
<!DOCTYPE svg PUBLIC "-//W3C//DTD SVG 1.1//EN"
 "http://www.w3.org/Graphics/SVG/1.1/DTD/svg11.dtd">
<!-- Generated by graphviz version 10.0.1 (20240210.2158)
 -->
<!-- Title: Tree Pages: 1 -->
<svg width="1097pt" height="433pt"
 viewBox="0.00 0.00 1097.00 433.00" xmlns="http://www.w3.org/2000/svg" xmlns:xlink="http://www.w3.org/1999/xlink">
<g id="graph0" class="graph" transform="scale(1 1) rotate(0) translate(4 429)">
<title>Tree</title>
<polygon fill="white" stroke="none" points="-4,4 -4,-429 1093,-429 1093,4 -4,4"/>
<!-- 0 -->
<g id="node1" class="node">
<title>0</title>
<polygon fill="#9c64eb" stroke="black" points="625,-425 486,-425 486,-342 625,-342 625,-425"/>
<text text-anchor="start" x="531.12" y="-407.7" font-family="Helvetica,sans-Serif" font-size="14.00">node #0</text>
<text text-anchor="start" x="520.25" y="-392.7" font-family="Helvetica,sans-Serif" font-size="14.00">starch ≤ 0.5</text>
<text text-anchor="start" x="510.88" y="-377.7" font-family="Helvetica,sans-Serif" font-size="14.00">samples = 952</text>
<text text-anchor="start" x="494" y="-362.7" font-family="Helvetica,sans-Serif" font-size="14.00">value = [86, 99, 767]</text>
<text text-anchor="start" x="511.62" y="-347.7" font-family="Helvetica,sans-Serif" font-size="14.00">class = korean</text>
</g>
<!-- 1 -->
<g id="node2" class="node">
<title>1</title>
<polygon fill="#965ae9" stroke="black" points="494,-306 355,-306 355,-223 494,-223 494,-306"/>
<text text-anchor="start" x="400.12" y="-288.7" font-family="Helvetica,sans-Serif" font-size="14.00">node #1</text>
<text text-anchor="start" x="386.62" y="-273.7" font-family="Helvetica,sans-Serif" font-size="14.00">wasabi ≤ 0.5</text>
<text text-anchor="start" x="379.88" y="-258.7" font-family="Helvetica,sans-Serif" font-size="14.00">samples = 838</text>
<text text-anchor="start" x="363" y="-243.7" font-family="Helvetica,sans-Serif" font-size="14.00">value = [28, 95, 715]</text>
<text text-anchor="start" x="380.62" y="-228.7" font-family="Helvetica,sans-Serif" font-size="14.00">class = korean</text>
</g>
<!-- 0&#45;&gt;1 -->
<g id="edge1" class="edge">
<title>0&#45;&gt;1</title>
<path fill="none" stroke="black" d="M509.68,-341.58C499.65,-332.62 488.94,-323.06 478.62,-313.84"/>
<polygon fill="black" stroke="black" points="480.99,-311.26 471.2,-307.21 476.33,-316.48 480.99,-311.26"/>
<text text-anchor="middle" x="471.48" y="-325.36" font-family="Helvetica,sans-Serif" font-size="14.00">True</text>
</g>
<!-- 8 -->
<g id="node9" class="node">
<title>8</title>
<polygon fill="#fcf3ec" stroke="black" points="759.5,-306 635.5,-306 635.5,-223 759.5,-223 759.5,-306"/>
<text text-anchor="start" x="673.12" y="-288.7" font-family="Helvetica,sans-Serif" font-size="14.00">node #8</text>
<text text-anchor="start" x="662.25" y="-273.7" font-family="Helvetica,sans-Serif" font-size="14.00">oyster ≤ 0.5</text>
<text text-anchor="start" x="652.88" y="-258.7" font-family="Helvetica,sans-Serif" font-size="14.00">samples = 114</text>
<text text-anchor="start" x="643.5" y="-243.7" font-family="Helvetica,sans-Serif" font-size="14.00">value = [58, 4, 52]</text>
<text text-anchor="start" x="651" y="-228.7" font-family="Helvetica,sans-Serif" font-size="14.00">class = chinese</text>
</g>
<!-- 0&#45;&gt;8 -->
<g id="edge8" class="edge">
<title>0&#45;&gt;8</title>
<path fill="none" stroke="black" d="M605.16,-341.58C616.25,-332.44 628.11,-322.67 639.5,-313.29"/>
<polygon fill="black" stroke="black" points="641.44,-316.22 646.94,-307.16 636.99,-310.82 641.44,-316.22"/>
<text text-anchor="middle" x="645.7" y="-325.28" font-family="Helvetica,sans-Serif" font-size="14.00">False</text>
</g>
<!-- 2 -->
<g id="node3" class="node">
<title>2</title>
<polygon fill="#9355e9" stroke="black" points="292,-187 153,-187 153,-104 292,-104 292,-187"/>
<text text-anchor="start" x="198.12" y="-169.7" font-family="Helvetica,sans-Serif" font-size="14.00">node #2</text>
<text text-anchor="start" x="180.12" y="-154.7" font-family="Helvetica,sans-Serif" font-size="14.00">cayenne ≤ 0.5</text>
<text text-anchor="start" x="177.88" y="-139.7" font-family="Helvetica,sans-Serif" font-size="14.00">samples = 820</text>
<text text-anchor="start" x="161" y="-124.7" font-family="Helvetica,sans-Serif" font-size="14.00">value = [28, 78, 714]</text>
<text text-anchor="start" x="178.62" y="-109.7" font-family="Helvetica,sans-Serif" font-size="14.00">class = korean</text>
</g>
<!-- 1&#45;&gt;2 -->
<g id="edge2" class="edge">
<title>1&#45;&gt;2</title>
<path fill="none" stroke="black" d="M354.7,-223.07C337.67,-213.21 319.33,-202.58 301.89,-192.48"/>
<polygon fill="black" stroke="black" points="304.02,-189.67 293.61,-187.69 300.51,-195.73 304.02,-189.67"/>
</g>
<!-- 5 -->
<g id="node6" class="node">
<title>5</title>
<polygon fill="#45e788" stroke="black" points="483.12,-187 365.88,-187 365.88,-104 483.12,-104 483.12,-187"/>
<text text-anchor="start" x="400.12" y="-169.7" font-family="Helvetica,sans-Serif" font-size="14.00">node #5</text>
<text text-anchor="start" x="388.88" y="-154.7" font-family="Helvetica,sans-Serif" font-size="14.00">lemon ≤ 0.5</text>
<text text-anchor="start" x="383.62" y="-139.7" font-family="Helvetica,sans-Serif" font-size="14.00">samples = 18</text>
<text text-anchor="start" x="374.25" y="-124.7" font-family="Helvetica,sans-Serif" font-size="14.00">value = [0, 17, 1]</text>
<text text-anchor="start" x="373.88" y="-109.7" font-family="Helvetica,sans-Serif" font-size="14.00">class = japanese</text>
</g>
<!-- 1&#45;&gt;5 -->
<g id="edge5" class="edge">
<title>1&#45;&gt;5</title>
<path fill="none" stroke="black" d="M424.5,-222.58C424.5,-214.79 424.5,-206.53 424.5,-198.45"/>
<polygon fill="black" stroke="black" points="428,-198.71 424.5,-188.71 421,-198.71 428,-198.71"/>
</g>
<!-- 3 -->
<g id="node4" class="node">
<title>3</title>
<polygon fill="#a06aec" stroke="black" points="139,-68 0,-68 0,0 139,0 139,-68"/>
<text text-anchor="start" x="45.12" y="-50.7" font-family="Helvetica,sans-Serif" font-size="14.00">node #3</text>
<text text-anchor="start" x="24.88" y="-35.7" font-family="Helvetica,sans-Serif" font-size="14.00">samples = 419</text>
<text text-anchor="start" x="8" y="-20.7" font-family="Helvetica,sans-Serif" font-size="14.00">value = [16, 71, 332]</text>
<text text-anchor="start" x="25.62" y="-5.7" font-family="Helvetica,sans-Serif" font-size="14.00">class = korean</text>
</g>
<!-- 2&#45;&gt;3 -->
<g id="edge3" class="edge">
<title>2&#45;&gt;3</title>
<path fill="none" stroke="black" d="M165.53,-103.73C152.4,-94.33 138.45,-84.35 125.37,-74.99"/>
<polygon fill="black" stroke="black" points="127.43,-72.15 117.26,-69.18 123.35,-77.85 127.43,-72.15"/>
</g>
<!-- 4 -->
<g id="node5" class="node">
<title>4</title>
<polygon fill="#8743e6" stroke="black" points="288.25,-68 156.75,-68 156.75,0 288.25,0 288.25,-68"/>
<text text-anchor="start" x="198.12" y="-50.7" font-family="Helvetica,sans-Serif" font-size="14.00">node #4</text>
<text text-anchor="start" x="177.88" y="-35.7" font-family="Helvetica,sans-Serif" font-size="14.00">samples = 401</text>
<text text-anchor="start" x="164.75" y="-20.7" font-family="Helvetica,sans-Serif" font-size="14.00">value = [12, 7, 382]</text>
<text text-anchor="start" x="178.62" y="-5.7" font-family="Helvetica,sans-Serif" font-size="14.00">class = korean</text>
</g>
<!-- 2&#45;&gt;4 -->
<g id="edge4" class="edge">
<title>2&#45;&gt;4</title>
<path fill="none" stroke="black" d="M222.5,-103.73C222.5,-95.88 222.5,-87.63 222.5,-79.67"/>
<polygon fill="black" stroke="black" points="226,-79.81 222.5,-69.81 219,-79.81 226,-79.81"/>
</g>
<!-- 6 -->
<g id="node7" class="node">
<title>6</title>
<polygon fill="#39e581" stroke="black" points="423.12,-68 305.88,-68 305.88,0 423.12,0 423.12,-68"/>
<text text-anchor="start" x="340.12" y="-50.7" font-family="Helvetica,sans-Serif" font-size="14.00">node #6</text>
<text text-anchor="start" x="323.62" y="-35.7" font-family="Helvetica,sans-Serif" font-size="14.00">samples = 17</text>
<text text-anchor="start" x="314.25" y="-20.7" font-family="Helvetica,sans-Serif" font-size="14.00">value = [0, 17, 0]</text>
<text text-anchor="start" x="313.88" y="-5.7" font-family="Helvetica,sans-Serif" font-size="14.00">class = japanese</text>
</g>
<!-- 5&#45;&gt;6 -->
<g id="edge6" class="edge">
<title>5&#45;&gt;6</title>
<path fill="none" stroke="black" d="M402.16,-103.73C397.61,-95.43 392.81,-86.67 388.22,-78.28"/>
<polygon fill="black" stroke="black" points="391.35,-76.71 383.47,-69.63 385.21,-80.08 391.35,-76.71"/>
</g>
<!-- 7 -->
<g id="node8" class="node">
<title>7</title>
<polygon fill="#8139e5" stroke="black" points="550,-68 441,-68 441,0 550,0 550,-68"/>
<text text-anchor="start" x="471.12" y="-50.7" font-family="Helvetica,sans-Serif" font-size="14.00">node #7</text>
<text text-anchor="start" x="458.38" y="-35.7" font-family="Helvetica,sans-Serif" font-size="14.00">samples = 1</text>
<text text-anchor="start" x="449" y="-20.7" font-family="Helvetica,sans-Serif" font-size="14.00">value = [0, 0, 1]</text>
<text text-anchor="start" x="451.62" y="-5.7" font-family="Helvetica,sans-Serif" font-size="14.00">class = korean</text>
</g>
<!-- 5&#45;&gt;7 -->
<g id="edge7" class="edge">
<title>5&#45;&gt;7</title>
<path fill="none" stroke="black" d="M450.94,-103.73C456.44,-95.24 462.25,-86.28 467.79,-77.73"/>
<polygon fill="black" stroke="black" points="470.58,-79.86 473.09,-69.57 464.71,-76.06 470.58,-79.86"/>
</g>
<!-- 9 -->
<g id="node10" class="node">
<title>9</title>
<polygon fill="#e7dafa" stroke="black" points="759.5,-187 635.5,-187 635.5,-104 759.5,-104 759.5,-187"/>
<text text-anchor="start" x="673.12" y="-169.7" font-family="Helvetica,sans-Serif" font-size="14.00">node #9</text>
<text text-anchor="start" x="660" y="-154.7" font-family="Helvetica,sans-Serif" font-size="14.00">shrimp ≤ 0.5</text>
<text text-anchor="start" x="656.62" y="-139.7" font-family="Helvetica,sans-Serif" font-size="14.00">samples = 92</text>
<text text-anchor="start" x="643.5" y="-124.7" font-family="Helvetica,sans-Serif" font-size="14.00">value = [39, 4, 49]</text>
<text text-anchor="start" x="653.62" y="-109.7" font-family="Helvetica,sans-Serif" font-size="14.00">class = korean</text>
</g>
<!-- 8&#45;&gt;9 -->
<g id="edge9" class="edge">
<title>8&#45;&gt;9</title>
<path fill="none" stroke="black" d="M697.5,-222.58C697.5,-214.79 697.5,-206.53 697.5,-198.45"/>
<polygon fill="black" stroke="black" points="701,-198.71 697.5,-188.71 694,-198.71 701,-198.71"/>
</g>
<!-- 12 -->
<g id="node13" class="node">
<title>12</title>
<polygon fill="#e99558" stroke="black" points="961.75,-187 845.25,-187 845.25,-104 961.75,-104 961.75,-187"/>
<text text-anchor="start" x="875.38" y="-169.7" font-family="Helvetica,sans-Serif" font-size="14.00">node #12</text>
<text text-anchor="start" x="871.25" y="-154.7" font-family="Helvetica,sans-Serif" font-size="14.00">meat ≤ 0.5</text>
<text text-anchor="start" x="862.62" y="-139.7" font-family="Helvetica,sans-Serif" font-size="14.00">samples = 22</text>
<text text-anchor="start" x="853.25" y="-124.7" font-family="Helvetica,sans-Serif" font-size="14.00">value = [19, 0, 3]</text>
<text text-anchor="start" x="857" y="-109.7" font-family="Helvetica,sans-Serif" font-size="14.00">class = chinese</text>
</g>
<!-- 8&#45;&gt;12 -->
<g id="edge12" class="edge">
<title>8&#45;&gt;12</title>
<path fill="none" stroke="black" d="M759.87,-228.08C783.6,-214.6 810.75,-199.18 835.02,-185.39"/>
<polygon fill="black" stroke="black" points="836.59,-188.53 843.55,-180.55 833.13,-182.44 836.59,-188.53"/>
</g>
<!-- 10 -->
<g id="node11" class="node">
<title>10</title>
<polygon fill="#d2b8f6" stroke="black" points="692.5,-68 568.5,-68 568.5,0 692.5,0 692.5,-68"/>
<text text-anchor="start" x="602.38" y="-50.7" font-family="Helvetica,sans-Serif" font-size="14.00">node #10</text>
<text text-anchor="start" x="589.62" y="-35.7" font-family="Helvetica,sans-Serif" font-size="14.00">samples = 78</text>
<text text-anchor="start" x="576.5" y="-20.7" font-family="Helvetica,sans-Serif" font-size="14.00">value = [28, 4, 46]</text>
<text text-anchor="start" x="586.62" y="-5.7" font-family="Helvetica,sans-Serif" font-size="14.00">class = korean</text>
</g>
<!-- 9&#45;&gt;10 -->
<g id="edge10" class="edge">
<title>9&#45;&gt;10</title>
<path fill="none" stroke="black" d="M672.55,-103.73C667.42,-95.34 662,-86.47 656.81,-78.01"/>
<polygon fill="black" stroke="black" points="659.87,-76.29 651.67,-69.59 653.9,-79.95 659.87,-76.29"/>
</g>
<!-- 11 -->
<g id="node12" class="node">
<title>11</title>
<polygon fill="#eca36f" stroke="black" points="826.75,-68 710.25,-68 710.25,0 826.75,0 826.75,-68"/>
<text text-anchor="start" x="740.38" y="-50.7" font-family="Helvetica,sans-Serif" font-size="14.00">node #11</text>
<text text-anchor="start" x="727.62" y="-35.7" font-family="Helvetica,sans-Serif" font-size="14.00">samples = 14</text>
<text text-anchor="start" x="718.25" y="-20.7" font-family="Helvetica,sans-Serif" font-size="14.00">value = [11, 0, 3]</text>
<text text-anchor="start" x="722" y="-5.7" font-family="Helvetica,sans-Serif" font-size="14.00">class = chinese</text>
</g>
<!-- 9&#45;&gt;11 -->
<g id="edge11" class="edge">
<title>9&#45;&gt;11</title>
<path fill="none" stroke="black" d="M723.94,-103.73C729.44,-95.24 735.25,-86.28 740.79,-77.73"/>
<polygon fill="black" stroke="black" points="743.58,-79.86 746.09,-69.57 737.71,-76.06 743.58,-79.86"/>
</g>
<!-- 13 -->
<g id="node14" class="node">
<title>13</title>
<polygon fill="#e88e4e" stroke="black" points="961.75,-68 845.25,-68 845.25,0 961.75,0 961.75,-68"/>
<text text-anchor="start" x="875.38" y="-50.7" font-family="Helvetica,sans-Serif" font-size="14.00">node #13</text>
<text text-anchor="start" x="862.62" y="-35.7" font-family="Helvetica,sans-Serif" font-size="14.00">samples = 21</text>
<text text-anchor="start" x="853.25" y="-20.7" font-family="Helvetica,sans-Serif" font-size="14.00">value = [19, 0, 2]</text>
<text text-anchor="start" x="857" y="-5.7" font-family="Helvetica,sans-Serif" font-size="14.00">class = chinese</text>
</g>
<!-- 12&#45;&gt;13 -->
<g id="edge13" class="edge">
<title>12&#45;&gt;13</title>
<path fill="none" stroke="black" d="M903.5,-103.73C903.5,-95.88 903.5,-87.63 903.5,-79.67"/>
<polygon fill="black" stroke="black" points="907,-79.81 903.5,-69.81 900,-79.81 907,-79.81"/>
</g>
<!-- 14 -->
<g id="node15" class="node">
<title>14</title>
<polygon fill="#8139e5" stroke="black" points="1089,-68 980,-68 980,0 1089,0 1089,-68"/>
<text text-anchor="start" x="1006.38" y="-50.7" font-family="Helvetica,sans-Serif" font-size="14.00">node #14</text>
<text text-anchor="start" x="997.38" y="-35.7" font-family="Helvetica,sans-Serif" font-size="14.00">samples = 1</text>
<text text-anchor="start" x="988" y="-20.7" font-family="Helvetica,sans-Serif" font-size="14.00">value = [0, 0, 1]</text>
<text text-anchor="start" x="990.62" y="-5.7" font-family="Helvetica,sans-Serif" font-size="14.00">class = korean</text>
</g>
<!-- 12&#45;&gt;14 -->
<g id="edge14" class="edge">
<title>12&#45;&gt;14</title>
<path fill="none" stroke="black" d="M952.28,-103.73C963.3,-94.51 975,-84.74 986.01,-75.53"/>
<polygon fill="black" stroke="black" points="988.07,-78.37 993.5,-69.27 983.58,-73 988.07,-78.37"/>
</g>
</g>
</svg>
